<?xml version="1.0" encoding="utf-8"?>
<!-- Generator: Adobe Illustrator 24.0.0, SVG Export Plug-In . SVG Version: 6.00 Build 0)  -->
<svg version="1.1" xmlns="http://www.w3.org/2000/svg" xmlns:xlink="http://www.w3.org/1999/xlink" x="0px" y="0px"
	 viewBox="0 0 256 256" style="enable-background:new 0 0 256 256;" xml:space="preserve">
<style type="text/css">
	.st0{fill:#F98FA6;}
	.st1{fill:#FC657E;}
	.st2{fill:#DAE6F1;}
	.st3{fill:#5290DB;}
	.st4{fill:#FCDD86;}
	.st5{fill:#F5C84C;}
	.st6{fill:#87D147;}
	.st7{fill:#70D6F9;}
	.st8{fill:#EDF4FC;}
	.st9{fill:#9BE5F9;}
	.st10{fill:#B2E26D;}
	.st11{fill:#F9C1A8;}
	.st12{fill:#414344;}
	.st13{fill:#E1FBFF;}
	.st14{fill:#FFE3EC;}
	.st15{fill:#FCBECF;}
	.st16{fill:#EF4460;}
	.st17{fill:#80C2F9;}
	.st18{fill:#3A70BF;}
	.st19{fill:#FCA265;}
	.st20{fill:#5B5D60;}
	.st21{fill:#818182;}
	.st22{fill:#C7D7E5;}
	.st23{fill:#F9D0B4;}
	.st24{fill:#AA6F59;}
	.st25{fill:#D1856D;}
	.st26{fill:#FCC29A;}
	.st27{fill:#29589F;}
	.st28{fill:#F7B386;}
	.st29{fill:#FC8C48;}
	.st30{fill:#FFF0CC;}
	.st31{fill:#57AF12;}
	.st32{fill:#3CAADC;}
	.st33{fill:#EDB311;}
	.st34{fill:#231F20;}
</style>
<g id="Layer_1">
</g>
<g id="Layer_2">
</g>
<g id="Layer_3">
</g>
<g id="Layer_4">
</g>
<g id="Layer_5">
</g>
<g id="Layer_6">
</g>
<g id="Layer_7">
</g>
<g id="Layer_8">
</g>
<g id="Layer_9">
</g>
<g id="Layer_10">
</g>
<g id="Layer_11">
</g>
<g id="Layer_12">
</g>
<g id="Layer_13">
</g>
<g id="Layer_14">
</g>
<g id="Layer_15">
</g>
<g id="Layer_16">
</g>
<g id="Layer_17">
</g>
<g id="Layer_18">
</g>
<g id="Layer_19">
</g>
<g id="Layer_20">
</g>
<g id="Layer_21">
</g>
<g id="Layer_22">
</g>
<g id="Layer_23">
</g>
<g id="Layer_24">
</g>
<g id="Layer_25">
</g>
<g id="Layer_26">
</g>
<g id="Layer_27">
</g>
<g id="Layer_28">
</g>
<g id="Layer_29">
</g>
<g id="Layer_30">
</g>
<g id="Layer_31">
</g>
<g id="Layer_32">
</g>
<g id="Layer_33">
</g>
<g id="Layer_34">
</g>
<g id="Layer_35">
</g>
<g id="Layer_36">
</g>
<g id="Layer_37">
</g>
<g id="Layer_38">
</g>
<g id="Layer_39">
</g>
<g id="Layer_40">
</g>
<g id="Layer_41">
</g>
<g id="Layer_42">
</g>
<g id="Layer_43">
</g>
<g id="Layer_44">
</g>
<g id="Layer_45">
</g>
<g id="Layer_46">
</g>
<g id="Layer_47">
</g>
<g id="Layer_48">
</g>
<g id="Layer_49">
</g>
<g id="Layer_50">
</g>
<g id="Layer_51">
	<g>
		<g>
			<g>
				<path class="st3" d="M111.764,140.14h81.272V49.794c0-12.04-9.795-21.834-21.834-21.834H84.798
					c-12.039,0-21.834,9.794-21.834,21.834V70.14h81.307c6.197,0,11.221,5.024,11.221,11.221v29.836
					c0,6.198-5.024,11.221-11.221,11.221H75.917c-2.51,0-4.834,1.323-6.117,3.48l-3.942,6.632c-0.651,1.096-1.775,1.634-2.894,1.622
					v97.513c0,12.04,9.795,21.834,21.834,21.834h86.403c12.039,0,21.834-9.795,21.834-21.834v-27.509
					c-1.107,0-2.214-0.542-2.859-1.626l-3.942-6.632c-1.282-2.158-3.607-3.48-6.117-3.48h-68.355
					c-6.197,0-11.221-5.024-11.221-11.221v-29.836C100.542,145.164,105.566,140.14,111.764,140.14z"/>
			</g>
		</g>
		<g>
			<g>
				<path class="st9" d="M111.764,140.14h69.854V49.794c0-5.753-4.663-10.416-10.416-10.416h-23.061
					c-1.848,0-3.503,1.111-4.23,2.809c-2.645,6.176-8.766,10.506-15.91,10.506h0c-7.144,0-13.265-4.33-15.91-10.506
					c-0.727-1.698-2.383-2.809-4.23-2.809H84.798c-5.752,0-10.416,4.663-10.416,10.416V70.14h69.889
					c6.197,0,11.221,5.024,11.221,11.221v29.836c0,6.198-5.024,11.221-11.221,11.221H75.917c-0.523,0-1.035,0.07-1.534,0.181
					v109.066c0,5.752,4.663,10.416,10.416,10.416h86.403c5.752,0,10.416-4.663,10.416-10.416v-39.074
					c-0.488-0.105-0.988-0.174-1.499-0.174h-68.355c-6.197,0-11.221-5.024-11.221-11.221v-29.836
					C100.542,145.164,105.566,140.14,111.764,140.14z"/>
			</g>
		</g>
		<g>
			<g>
				<path class="st1" d="M144.271,70.14H44.764c-6.198,0-11.222,5.024-11.222,11.221v29.835c0,6.198,5.024,11.222,11.222,11.222
					h5.319c2.51,0,4.834,1.323,6.117,3.48l3.942,6.632c1.289,2.168,4.428,2.168,5.717,0l3.942-6.632
					c1.282-2.158,3.607-3.48,6.117-3.48h68.355c6.197,0,11.221-5.024,11.221-11.221V81.361
					C155.493,75.164,150.469,70.14,144.271,70.14z"/>
			</g>
		</g>
		<g>
			<g>
				<path class="st4" d="M211.271,140.14h-99.507c-6.197,0-11.221,5.024-11.221,11.221v29.836c0,6.198,5.024,11.221,11.221,11.221
					h68.355c2.51,0,4.834,1.323,6.117,3.48l3.942,6.632c1.289,2.168,4.428,2.168,5.717,0l3.942-6.632
					c1.282-2.158,3.607-3.48,6.117-3.48h5.319c6.198,0,11.222-5.024,11.222-11.222v-29.835
					C222.493,145.164,217.469,140.14,211.271,140.14z"/>
			</g>
		</g>
		<g>
			<g>
				
					<ellipse transform="matrix(0.9871 -0.1602 0.1602 0.9871 -14.6148 11.2596)" class="st8" cx="62.531" cy="96.279" rx="17.976" ry="17.976"/>
			</g>
		</g>
		<g>
			<g>
				
					<ellipse transform="matrix(0.9975 -0.0709 0.0709 0.9975 -6.4072 4.6658)" class="st23" cx="62.531" cy="92.602" rx="5.311" ry="5.311"/>
			</g>
		</g>
		<g>
			<g>
				<path class="st4" d="M66.435,98.88h-7.808c-3.882,0-7.057,3.176-7.057,7.057v4.585c3.034,2.339,6.834,3.733,10.961,3.733
					c4.127,0,7.927-1.394,10.961-3.733v-4.585C73.493,102.056,70.317,98.88,66.435,98.88z"/>
			</g>
		</g>
		<g>
			<g>
				<circle class="st8" cx="193.504" cy="166.279" r="17.976"/>
			</g>
		</g>
		<g>
			<g>
				<circle class="st23" cx="193.504" cy="162.602" r="5.311"/>
			</g>
		</g>
		<g>
			<g>
				<path class="st1" d="M197.408,168.88H189.6c-3.882,0-7.057,3.176-7.057,7.057v4.585c3.034,2.339,6.834,3.733,10.961,3.733
					c4.127,0,7.927-1.394,10.961-3.733v-4.585C204.465,172.056,201.289,168.88,197.408,168.88z"/>
			</g>
		</g>
		<g>
			<g>
				<path class="st8" d="M86.36,210.5c-1.822,0-3.3,1.477-3.3,3.3V230.2c0,1.822,1.477,3.3,3.3,3.3h68.14v-23H86.36z"/>
			</g>
		</g>
		<g>
			<g>
				<path class="st10" d="M169.64,210.5H154.5v23h15.14c1.822,0,3.3-1.477,3.3-3.3V213.8C172.94,211.977,171.463,210.5,169.64,210.5
					z"/>
			</g>
		</g>
		<g>
			<g>
				<path d="M193.036,202.047c-1.381,0-2.5,1.119-2.5,2.5v27.119c0,10.661-8.673,19.334-19.334,19.334H84.798
					c-10.661,0-19.334-8.673-19.334-19.334v-97.103c0-1.381-1.119-2.5-2.5-2.5s-2.5,1.119-2.5,2.5v97.103
					C60.464,245.084,71.38,256,84.798,256h86.403c13.418,0,24.334-10.916,24.334-24.334v-27.119
					C195.536,203.166,194.417,202.047,193.036,202.047z"/>
			</g>
		</g>
		<g>
			<g>
				<path d="M171.202,25.46H84.798c-13.418,0-24.334,10.916-24.334,24.334V69c0,1.381,1.119,2.5,2.5,2.5s2.5-1.119,2.5-2.5V49.794
					c0-10.661,8.673-19.334,19.334-19.334h86.403c10.661,0,19.334,8.673,19.334,19.334v89.645c0,1.381,1.119,2.5,2.5,2.5
					s2.5-1.119,2.5-2.5V49.794C195.536,36.376,184.62,25.46,171.202,25.46z"/>
			</g>
		</g>
		<g>
			<g>
				<path d="M165.5,51h-10c-1.381,0-2.5,1.119-2.5,2.5s1.119,2.5,2.5,2.5h10c1.381,0,2.5-1.119,2.5-2.5S166.881,51,165.5,51z"/>
			</g>
		</g>
		<g>
			<g>
				<g>
					<path d="M120.479,82.697h-28c-1.381,0-2.5,1.119-2.5,2.5s1.119,2.5,2.5,2.5h28c1.381,0,2.5-1.119,2.5-2.5
						S121.86,82.697,120.479,82.697z"/>
				</g>
			</g>
			<g>
				<g>
					<path d="M140.617,93.779H92.479c-1.381,0-2.5,1.119-2.5,2.5s1.119,2.5,2.5,2.5h48.138c1.381,0,2.5-1.119,2.5-2.5
						S141.998,93.779,140.617,93.779z"/>
				</g>
			</g>
			<g>
				<g>
					<path d="M140.617,104.861H92.479c-1.381,0-2.5,1.119-2.5,2.5s1.119,2.5,2.5,2.5h48.138c1.381,0,2.5-1.119,2.5-2.5
						S141.998,104.861,140.617,104.861z"/>
				</g>
			</g>
		</g>
		<g>
			<g>
				<g>
					<path d="M163.556,152.697h-28c-1.381,0-2.5,1.119-2.5,2.5s1.119,2.5,2.5,2.5h28c1.381,0,2.5-1.119,2.5-2.5
						S164.937,152.697,163.556,152.697z"/>
				</g>
			</g>
			<g>
				<g>
					<path d="M163.556,163.779h-48.138c-1.381,0-2.5,1.119-2.5,2.5s1.119,2.5,2.5,2.5h48.138c1.381,0,2.5-1.119,2.5-2.5
						S164.937,163.779,163.556,163.779z"/>
				</g>
			</g>
			<g>
				<g>
					<path d="M163.556,174.861h-48.138c-1.381,0-2.5,1.119-2.5,2.5s1.119,2.5,2.5,2.5h48.138c1.381,0,2.5-1.119,2.5-2.5
						S164.937,174.861,163.556,174.861z"/>
				</g>
			</g>
		</g>
		<g>
			<g>
				<path class="st5" d="M185.983,8.882c-4.498-0.837-8.043-4.31-8.898-8.716c-0.043-0.221-0.352-0.221-0.395,0
					c-0.855,4.406-4.4,7.879-8.898,8.716c-0.226,0.042-0.226,0.345,0,0.387c4.498,0.838,8.043,4.311,8.898,8.717
					c0.043,0.221,0.352,0.221,0.395,0c0.855-4.406,4.4-7.879,8.898-8.717C186.209,9.227,186.209,8.925,185.983,8.882z"/>
			</g>
		</g>
		<g>
			<g>
				<path class="st10" d="M214.887,101.947c-3.004-0.56-5.372-2.879-5.943-5.823c-0.029-0.148-0.235-0.148-0.264,0
					c-0.571,2.943-2.939,5.263-5.943,5.823c-0.151,0.028-0.151,0.23,0,0.258c3.004,0.56,5.372,2.879,5.943,5.822
					c0.029,0.148,0.235,0.148,0.264,0c0.571-2.943,2.939-5.263,5.943-5.822C215.038,102.177,215.038,101.975,214.887,101.947z"/>
			</g>
		</g>
		<g>
			<g>
				<path class="st7" d="M46.694,164.302h-2.329v-2.33c0-1.744-1.413-3.157-3.157-3.157s-3.157,1.413-3.157,3.157v2.33h-2.33
					c-1.744,0-3.157,1.413-3.157,3.157c0,1.744,1.413,3.157,3.157,3.157h2.33v2.33c0,1.744,1.413,3.157,3.157,3.157
					s3.157-1.414,3.157-3.157v-2.33h2.329c1.744,0,3.157-1.413,3.157-3.157C49.851,165.715,48.438,164.302,46.694,164.302z"/>
			</g>
		</g>
		<g>
			<g>
				<path class="st1" d="M198.999,19.06c-1.865,0-3.377,1.512-3.377,3.377s1.512,3.377,3.377,3.377s3.377-1.512,3.377-3.377
					S200.864,19.06,198.999,19.06z"/>
			</g>
		</g>
		<g>
			<g>
				<path class="st5" d="M47.999,190.06c-1.865,0-3.377,1.512-3.377,3.377s1.512,3.377,3.377,3.377s3.377-1.512,3.377-3.377
					S49.864,190.06,47.999,190.06z"/>
			</g>
		</g>
		<g>
			<g>
				<path d="M171.202,36.878h-23.061c-2.841,0-5.404,1.698-6.528,4.325c-2.339,5.461-7.682,8.99-13.612,8.99
					c-5.93,0-11.273-3.529-13.612-8.989c-1.125-2.628-3.687-4.326-6.528-4.326H84.798c-7.122,0-12.916,5.794-12.916,12.916v19.878
					c0,1.381,1.119,2.5,2.5,2.5s2.5-1.119,2.5-2.5V49.794c0-4.365,3.551-7.916,7.916-7.916h23.061c0.837,0,1.595,0.508,1.932,1.294
					c3.128,7.303,10.275,12.021,18.208,12.021c7.934,0,15.081-4.719,18.209-12.022c0.336-0.785,1.094-1.293,1.932-1.293h23.061
					c4.365,0,7.916,3.551,7.916,7.916v89.425c0,1.381,1.119,2.5,2.5,2.5s2.5-1.119,2.5-2.5V49.794
					C184.117,42.672,178.323,36.878,171.202,36.878z"/>
			</g>
		</g>
		<g>
			<g>
				<path d="M181.617,190.875c-1.381,0-2.5,1.119-2.5,2.5v38.291c0,4.365-3.551,7.916-7.916,7.916H84.799
					c-4.365,0-7.916-3.551-7.916-7.916V122.953c0-1.381-1.119-2.5-2.5-2.5s-2.5,1.119-2.5,2.5v108.713
					c0,7.122,5.794,12.916,12.916,12.916h86.403c7.122,0,12.916-5.794,12.916-12.916v-38.291
					C184.117,191.994,182.998,190.875,181.617,190.875z"/>
			</g>
		</g>
		<g>
			<g>
				<g>
					<path d="M144.271,67.64H44.764c-7.566,0-13.722,6.155-13.722,13.722v29.835c0,7.566,6.156,13.722,13.722,13.722h5.318
						c1.62,0,3.14,0.865,3.968,2.258l3.942,6.633c1.06,1.784,2.932,2.849,5.007,2.849s3.947-1.064,5.007-2.849l3.942-6.633
						c0.828-1.393,2.348-2.258,3.968-2.258h68.354c7.566,0,13.721-6.155,13.721-13.721V81.361
						C157.993,73.795,151.837,67.64,144.271,67.64z M152.993,111.197c0,4.809-3.912,8.721-8.721,8.721H75.917
						c-3.374,0-6.542,1.802-8.266,4.703l-3.942,6.633c-0.208,0.351-0.534,0.403-0.709,0.403s-0.501-0.053-0.709-0.403l-3.942-6.633
						c-1.725-2.901-4.892-4.703-8.266-4.703h-5.318c-4.81,0-8.722-3.912-8.722-8.722V81.361c0-4.81,3.913-8.722,8.722-8.722h99.507
						c4.809,0,8.721,3.912,8.721,8.722V111.197z"/>
				</g>
			</g>
		</g>
		<g>
			<g>
				<g>
					<path d="M211.271,137.64h-99.508c-7.566,0-13.721,6.155-13.721,13.722v29.836c0,7.565,6.155,13.721,13.721,13.721l68.354,0.001
						c1.62,0,3.141,0.865,3.968,2.257l3.942,6.633c1.06,1.784,2.932,2.849,5.007,2.849s3.947-1.064,5.007-2.849l3.942-6.633
						c0.828-1.392,2.348-2.257,3.968-2.257h5.318c7.566,0,13.722-6.156,13.722-13.723v-29.835
						C224.993,143.795,218.837,137.64,211.271,137.64z M219.993,181.196c0,4.81-3.913,8.723-8.722,8.723h-5.318
						c-3.375,0-6.542,1.802-8.266,4.702l-3.942,6.633c-0.208,0.351-0.534,0.403-0.709,0.403s-0.501-0.053-0.709-0.403l-3.942-6.633
						c-1.725-2.9-4.892-4.702-8.266-4.702l-68.354-0.001c-4.809,0-8.721-3.912-8.721-8.721v-29.836c0-4.81,3.912-8.722,8.721-8.722
						h99.508c4.809,0,8.721,3.912,8.721,8.722V181.196z"/>
				</g>
			</g>
		</g>
		<g>
			<g>
				<g>
					<path d="M62.531,75.803c-11.291,0-20.476,9.186-20.476,20.477s9.186,20.477,20.476,20.477c11.291,0,20.477-9.186,20.477-20.477
						S73.822,75.803,62.531,75.803z M62.531,111.756c-8.534,0-15.476-6.942-15.476-15.477s6.942-15.477,15.476-15.477
						s15.477,6.942,15.477,15.477S71.065,111.756,62.531,111.756z"/>
				</g>
			</g>
		</g>
		<g>
			<g>
				<g>
					<path d="M62.531,84.791c-4.307,0-7.811,3.504-7.811,7.812c0,4.307,3.504,7.811,7.811,7.811s7.812-3.504,7.812-7.811
						C70.343,88.295,66.838,84.791,62.531,84.791z M62.531,95.413c-1.55,0-2.811-1.261-2.811-2.811s1.261-2.812,2.811-2.812
						c1.55,0,2.812,1.262,2.812,2.812S64.082,95.413,62.531,95.413z"/>
				</g>
			</g>
		</g>
		<g>
			<g>
				<path d="M66.435,96.38h-7.808c-5.27,0-9.557,4.287-9.557,9.558v4.281c0,1.381,1.119,2.5,2.5,2.5s2.5-1.119,2.5-2.5v-4.281
					c0-2.513,2.044-4.558,4.557-4.558h7.808c2.513,0,4.558,2.045,4.558,4.558v4.369c0,1.381,1.119,2.5,2.5,2.5s2.5-1.119,2.5-2.5
					v-4.369C75.993,100.667,71.705,96.38,66.435,96.38z"/>
			</g>
		</g>
		<g>
			<g>
				<g>
					<path d="M193.504,145.803c-11.291,0-20.477,9.186-20.477,20.477s9.186,20.477,20.477,20.477s20.477-9.186,20.477-20.477
						S204.795,145.803,193.504,145.803z M193.504,181.756c-8.534,0-15.477-6.942-15.477-15.477s6.943-15.477,15.477-15.477
						s15.477,6.942,15.477,15.477S202.038,181.756,193.504,181.756z"/>
				</g>
			</g>
		</g>
		<g>
			<g>
				<g>
					<path d="M193.504,154.791c-4.307,0-7.811,3.504-7.811,7.812c0,4.307,3.504,7.811,7.811,7.811s7.811-3.504,7.811-7.811
						C201.315,158.295,197.811,154.791,193.504,154.791z M193.504,165.413c-1.55,0-2.811-1.261-2.811-2.811s1.261-2.812,2.811-2.812
						s2.811,1.262,2.811,2.812S195.054,165.413,193.504,165.413z"/>
				</g>
			</g>
		</g>
		<g>
			<g>
				<path d="M197.408,166.38H189.6c-5.27,0-9.558,4.287-9.558,9.558v4.229c0,1.381,1.119,2.5,2.5,2.5s2.5-1.119,2.5-2.5v-4.229
					c0-2.513,2.044-4.558,4.558-4.558h7.808c2.513,0,4.558,2.045,4.558,4.558v4.251c0,1.381,1.119,2.5,2.5,2.5s2.5-1.119,2.5-2.5
					v-4.251C206.965,170.667,202.678,166.38,197.408,166.38z"/>
			</g>
		</g>
		<g>
			<g>
				<g>
					<path d="M154.5,208H86.359c-3.198,0-5.799,2.602-5.799,5.8v16.4c0,3.198,2.602,5.8,5.799,5.8H154.5c1.381,0,2.5-1.119,2.5-2.5
						v-23C157,209.119,155.881,208,154.5,208z M152,231H86.359c-0.441,0-0.799-0.358-0.799-0.8v-16.4c0-0.441,0.358-0.8,0.799-0.8
						H152V231z"/>
				</g>
			</g>
		</g>
		<g>
			<g>
				<path d="M169.641,208H154.5c-1.381,0-2.5,1.119-2.5,2.5s1.119,2.5,2.5,2.5h15.141c0.441,0,0.799,0.358,0.799,0.8v16.4
					c0,0.441-0.358,0.8-0.799,0.8H154.5c-1.381,0-2.5,1.119-2.5,2.5s1.119,2.5,2.5,2.5h15.141c3.198,0,5.799-2.602,5.799-5.8v-16.4
					C175.44,210.602,172.838,208,169.641,208z"/>
			</g>
		</g>
	</g>
</g>
<g id="Layer_52">
</g>
<g id="Layer_53">
</g>
<g id="Layer_54">
</g>
<g id="Layer_55">
</g>
<g id="Layer_56">
</g>
<g id="Layer_57">
</g>
<g id="Layer_58">
</g>
<g id="Layer_59">
</g>
<g id="Layer_60">
</g>
<g id="Layer_61">
</g>
<g id="Layer_62">
</g>
<g id="Layer_63">
</g>
<g id="Layer_64">
</g>
<g id="Layer_65">
</g>
<g id="Layer_66">
</g>
<g id="Layer_67">
</g>
<g id="Layer_68">
</g>
<g id="Layer_69">
</g>
<g id="Layer_70">
</g>
<g id="Layer_71">
</g>
<g id="Layer_72">
</g>
<g id="Layer_73">
</g>
<g id="Layer_74">
</g>
<g id="Layer_75">
</g>
<g id="Layer_76">
</g>
<g id="Layer_77">
</g>
<g id="Layer_78">
</g>
<g id="Layer_79">
</g>
<g id="Layer_80">
</g>
<g id="Layer_81">
</g>
<g id="Layer_82">
</g>
<g id="Layer_83">
</g>
<g id="Layer_84">
</g>
<g id="Layer_85">
</g>
</svg>
